<?xml version="1.0" encoding="utf-8"?>
<!-- Generator: Adobe Illustrator 25.2.0, SVG Export Plug-In . SVG Version: 6.00 Build 0)  -->
<svg version="1.1" id="Layer_1" xmlns="http://www.w3.org/2000/svg" xmlns:xlink="http://www.w3.org/1999/xlink" x="0px" y="0px"
	 viewBox="0 0 190 36" style="enable-background:new 0 0 190 36;" xml:space="preserve">
<style type="text/css">
	.st0{fill:#222B36;}
</style>
<g>
	<path class="st0" d="M54.7,25.5h-9.2l-0.2-0.2V10.8l0.2-0.2h1.7l0.2,0.2v12.6l0.2,0.2h7l0.2,0.2v1.5L54.7,25.5z"/>
	<path class="st0" d="M60.8,25.5h-1.7l-0.2-0.2V10.8l0.2-0.2h1.7l0.2,0.2v14.5L60.8,25.5z"/>
	<path class="st0" d="M78.4,25.5h-1.9l-0.4-0.2l-7.2-11.1h-0.2v11.1l-0.2,0.2h-1.7l-0.2-0.2V10.8l0.2-0.2h1.9l0.4,0.2l7.2,11.1h0.2
		V10.8l0.2-0.2h1.7l0.2,0.2v14.5L78.4,25.5z"/>
	<path class="st0" d="M96,25.5h-1.9l-0.4-0.2l-7.2-11.1h-0.2v11.1L86,25.5h-1.7l-0.2-0.2V10.8l0.2-0.2h1.9l0.4,0.2l7.2,11.1H94V10.8
		l0.2-0.2H96l0.2,0.2v14.5L96,25.5z"/>
	<path class="st0" d="M115.1,25.2l-0.2,0.2H113l-0.2-0.2L109.6,14h-0.2l-3.2,11.3l-0.2,0.2h-1.9l-0.2-0.2l-3.4-13v-1.5l0.2-0.2h1.3
		l0.2,0.2l2.8,10.9h0.2l3.2-10.9l0.2-0.2h1.9l0.2,0.2l3.2,10.9h0.2l2.8-10.9l0.2-0.2h1.3l0.2,0.2v1.5L115.1,25.2z"/>
	<path class="st0" d="M128.4,10.3c4.5,0,7,3.2,7,7.7s-2.5,7.7-7,7.7s-7-3.2-7-7.7S124,10.3,128.4,10.3z M128.4,23.7
		c3.2,0,4.9-2.3,4.9-5.8s-1.7-5.8-4.9-5.8s-4.9,2.3-4.9,5.8S125.2,23.7,128.4,23.7z"/>
	<path class="st0" d="M148,18.9v0.2l3,4.7v1.5l-0.2,0.2H150l-0.4-0.2l-3.8-6l-0.4-0.2H142l-0.2,0.2v6l-0.2,0.2h-1.7l-0.2-0.2V10.8
		l0.2-0.2h6.6c3,0,4.9,1.3,4.9,4.3C151.2,17.2,149.9,18.4,148,18.9z M146.3,12.5h-4.5l-0.2,0.2V17l0.2,0.2h4.5
		c1.9,0,2.8-0.6,2.8-2.3C149.1,13.1,148.2,12.5,146.3,12.5z"/>
	<path class="st0" d="M166.8,25.5H166l-0.4-0.2l-5.1-6.6h-0.2l-1.9,1.9L158,21v4.3l-0.2,0.2h-1.7l-0.2-0.2V10.8l0.2-0.2h1.7l0.2,0.2
		v7h0.2l7-7l0.4-0.2h0.6l0.2,0.2v1.5l-4.7,4.7v0.2l5.1,6.6v1.5V25.5z"/>
	<path class="st0" d="M176.1,25.7c-3.6,0-6-1.7-6-4.9l0.2-0.2h1.7l0.2,0.2c0,2.1,1.5,3,4,3c1.9,0,3.4-0.6,3.4-2.3
		c0-1.9-1.3-2.3-4.3-2.8c-3-0.4-4.9-1.7-4.9-4.3c0-1.9,1.5-4,5.3-4c3.2,0,5.5,1.3,5.5,4.5l-0.2,0.2h-1.7l-0.2-0.2
		c0-1.7-0.8-2.5-3.6-2.5c-1.9,0-3,0.8-3,2.1c0,1.7,1.1,2.1,4,2.5c3,0.4,5.1,1.5,5.1,4.5C181.9,23.7,180.2,25.7,176.1,25.7z"/>
</g>
<g>
	<polygon class="st0" points="22,22.6 24.2,22.6 24.4,22.4 24.4,19.6 24.7,19.3 27.5,19.3 27.7,19.1 27.7,16.9 27.5,16.7 24.7,16.7 
		24.4,16.4 24.4,13.6 24.2,13.4 22,13.4 21.8,13.6 21.8,16.4 21.5,16.7 18.7,16.7 18.5,16.9 18.5,19.1 18.7,19.3 21.5,19.3 
		21.8,19.6 21.8,22.4 	"/>
	<polygon class="st0" points="4.6,16.9 4.6,19.1 4.9,19.3 13.6,19.3 13.9,19.1 13.9,16.9 13.6,16.7 4.9,16.7 	"/>
	<path class="st0" d="M30.2,24.5c-0.2,0.1-0.3,0.1-0.5,0.2c-0.3,0.6-0.6,1.2-1,1.7c-0.5,0.8-1.2,1.5-1.8,2.2
		c-0.7,0.7-1.4,1.3-2.2,1.8c-0.8,0.5-1.7,1-2.6,1.4c-1.9,0.8-3.8,1.2-5.9,1.2s-4-0.4-5.9-1.2c-0.9-0.4-1.8-0.8-2.6-1.4
		c-0.8-0.5-1.5-1.2-2.2-1.8c-0.7-0.7-1.3-1.4-1.8-2.2c-0.4-0.5-0.7-1.1-1-1.7c-0.2-0.1-0.3-0.1-0.5-0.2l-2,0.9
		C0.1,25.6,0.1,25.8,0,26c2.9,5.9,9.1,10,16.1,10s13.2-4.1,16.1-10c-0.1-0.2-0.1-0.3-0.2-0.5L30.2,24.5z"/>
	<path class="st0" d="M2.2,11.5c0.2-0.1,0.3-0.1,0.5-0.2c0.3-0.6,0.6-1.2,1-1.7C4.2,8.8,4.9,8,5.5,7.3C6.2,6.7,7,6,7.8,5.5
		s1.7-1,2.6-1.4c1.9-0.8,3.8-1.2,5.9-1.2s4,0.4,5.9,1.2c0.9,0.4,1.8,0.8,2.6,1.4C25.6,6,26.3,6.7,27,7.3c0.7,0.7,1.3,1.4,1.8,2.2
		c0.4,0.5,0.7,1.1,1,1.7c0.2,0.1,0.3,0.1,0.5,0.2l2-0.9c0.1-0.2,0.1-0.3,0.2-0.5C29.4,4.1,23.3,0,16.2,0S3,4.1,0,10
		c0.1,0.2,0.1,0.3,0.2,0.5L2.2,11.5z"/>
</g>
</svg>
